#Comment line ignore any data following # character 
#Hierarchical Translation and Rotation (.htr) file 
[Header]	
#Header keywords are followed by a single value 
FileType HTR		#Single word string
DataType HTRS		#Translation followed by rotation and scale data
FileVersion 1		#integer
NumSegments 84		#integer
NumFrames 2		#integer
DataFrameRate 30		#integer, data frame rate in this file
EulerRotationOrder ZYX
CalibrationUnits mm
RotationUnits Degrees
GlobalAxisofGravity Y
BoneLengthAxis Y
ScaleFactor 1.00
[SegmentNames&Hierarchy]
#CHILD	PARENT
MASTER GLOBAL
root MASTER
chest root
L_mid_tent01 root
R_mid_tent01 root
spine01 root
Bip01_Neck chest
L_humerus chest
R_humerus chest
weapon_bone chest
Bip01_Head Bip01_Neck
eye_left_bone Bip01_Head
eye_right_bone Bip01_Head
L_forearm L_humerus
L_front_hand L_forearm
L_weapon_bone L_forearm
L_front_hand01_01 L_front_hand
L_front_hand02_01 L_front_hand
L_front_hand03_01 L_front_hand
L_front_hand01_02 L_front_hand01_01
L_front_hand02_02 L_front_hand02_01
L_front_hand03_02 L_front_hand03_01
R_forearm R_humerus
R_front_hand R_forearm
R_weapon_bone R_forearm
R_front_hand01_01 R_front_hand
R_front_hand02_01 R_front_hand
R_front_hand03_01 R_front_hand
R_front_hand01_02 R_front_hand01_01
R_front_hand02_02 R_front_hand02_01
R_front_hand03_02 R_front_hand03_01
null_rope01_connect L_mid_tent01
Rope1_Seg01 null_rope01_connect
Rope1_Seg02 Rope1_Seg01
Rope1_Seg03 Rope1_Seg02
Rope1_Seg04 Rope1_Seg03
Rope1_Seg05 Rope1_Seg04
Rope1_Seg06 Rope1_Seg05
Rope1_Seg07 Rope1_Seg06
Rope1_Seg09 Rope1_Seg07
L_mid_hand01 Rope1_Seg09
L_mid_hand02 Rope1_Seg09
L_mid_hand03 Rope1_Seg09
null_rope02_connect R_mid_tent01
Rope2_Seg01 null_rope02_connect
Rope2_Seg02 Rope2_Seg01
Rope2_Seg03 Rope2_Seg02
Rope2_Seg04 Rope2_Seg03
Rope2_Seg05 Rope2_Seg04
Rope2_Seg06 Rope2_Seg05
Rope2_Seg07 Rope2_Seg06
Rope2_Seg09 Rope2_Seg07
R_mid_hand01 Rope2_Seg09
R_mid_hand02 Rope2_Seg09
R_mid_hand03 Rope2_Seg09
spine02 spine01
spine03 spine02
pelvis spine03
null_rope03_connect pelvis
null_rope04_connect pelvis
Rope3_Seg01 null_rope03_connect
Rope3_Seg02 Rope3_Seg01
Rope3_Seg03 Rope3_Seg02
Rope3_Seg04 Rope3_Seg03
Rope3_Seg05 Rope3_Seg04
Rope3_Seg06 Rope3_Seg05
Rope3_Seg07 Rope3_Seg06
Rope3_Seg08 Rope3_Seg07
Rope3_Seg09 Rope3_Seg08
R_rear_hand01 Rope3_Seg09
R_rear_hand02 Rope3_Seg09
R_rear_hand03 Rope3_Seg09
Rope4_Seg01 null_rope04_connect
Rope4_Seg02 Rope4_Seg01
Rope4_Seg03 Rope4_Seg02
Rope4_Seg04 Rope4_Seg03
Rope4_Seg05 Rope4_Seg04
Rope4_Seg06 Rope4_Seg05
Rope4_Seg07 Rope4_Seg06
Rope4_Seg08 Rope4_Seg07
Rope4_Seg09 Rope4_Seg08
L_rear_hand01 Rope4_Seg09
L_rear_hand02 Rope4_Seg09
L_rear_hand03 Rope4_Seg09
[BasePosition]
#SegmentName Tx, Ty, Tz, Rx, Ry, Rz, BoneLength
MASTER 0.000000 0.000000 0.000000 -90.000000 0.000000 0.000000 10.000000 
root 0.000000 0.000000 0.000000 0.000000 0.000000 0.000000 10.000000 
chest 0.000000 0.000000 0.000000 0.000000 0.000000 0.000000 10.000000 
L_mid_tent01 0.000000 0.000000 0.000000 0.000000 0.000000 0.000000 10.000000 
R_mid_tent01 0.000000 0.000000 0.000000 0.000000 0.000000 0.000000 10.000000 
spine01 0.000000 0.000000 0.000000 0.000000 0.000000 0.000000 10.000000 
Bip01_Neck 0.000000 0.000000 0.000000 0.000000 0.000000 0.000000 10.000000 
L_humerus 0.000000 0.000000 0.000000 0.000000 0.000000 0.000000 10.000000 
R_humerus 0.000000 0.000000 0.000000 0.000000 0.000000 0.000000 10.000000 
weapon_bone 0.000000 0.000000 0.000000 0.000000 0.000000 0.000000 10.000000 
Bip01_Head 0.000000 0.000000 0.000000 0.000000 0.000000 0.000000 10.000000 
eye_left_bone 0.000000 0.000000 0.000000 0.000000 0.000000 0.000000 10.000000 
eye_right_bone 0.000000 0.000000 0.000000 0.000000 0.000000 0.000000 10.000000 
L_forearm 0.000000 0.000000 0.000000 0.000000 0.000000 0.000000 10.000000 
L_front_hand 0.000000 0.000000 0.000000 0.000000 0.000000 0.000000 10.000000 
L_weapon_bone 0.000000 0.000000 0.000000 0.000000 0.000000 0.000000 10.000000 
L_front_hand01_01 0.000000 0.000000 0.000000 0.000000 0.000000 0.000000 10.000000 
L_front_hand02_01 0.000000 0.000000 0.000000 0.000000 0.000000 0.000000 10.000000 
L_front_hand03_01 0.000000 0.000000 0.000000 0.000000 0.000000 0.000000 10.000000 
L_front_hand01_02 0.000000 0.000000 0.000000 0.000000 0.000000 0.000000 10.000000 
L_front_hand02_02 0.000000 0.000000 0.000000 0.000000 0.000000 0.000000 10.000000 
L_front_hand03_02 0.000000 0.000000 0.000000 0.000000 0.000000 0.000000 10.000000 
R_forearm 0.000000 0.000000 0.000000 0.000000 0.000000 0.000000 10.000000 
R_front_hand 0.000000 0.000000 0.000000 0.000000 0.000000 0.000000 10.000000 
R_weapon_bone 0.000000 0.000000 0.000000 0.000000 0.000000 0.000000 10.000000 
R_front_hand01_01 0.000000 0.000000 0.000000 0.000000 0.000000 0.000000 10.000000 
R_front_hand02_01 0.000000 0.000000 0.000000 0.000000 0.000000 0.000000 10.000000 
R_front_hand03_01 0.000000 0.000000 0.000000 0.000000 0.000000 0.000000 10.000000 
R_front_hand01_02 0.000000 0.000000 0.000000 0.000000 0.000000 0.000000 10.000000 
R_front_hand02_02 0.000000 0.000000 0.000000 0.000000 0.000000 0.000000 10.000000 
R_front_hand03_02 0.000000 0.000000 0.000000 0.000000 0.000000 0.000000 10.000000 
null_rope01_connect 0.000000 0.000000 0.000000 0.000000 0.000000 0.000000 10.000000 
Rope1_Seg01 0.000000 0.000000 0.000000 0.000000 0.000000 0.000000 10.000000 
Rope1_Seg02 0.000000 0.000000 0.000000 0.000000 0.000000 0.000000 10.000000 
Rope1_Seg03 0.000000 0.000000 0.000000 0.000000 0.000000 0.000000 10.000000 
Rope1_Seg04 0.000000 0.000000 0.000000 0.000000 0.000000 0.000000 10.000000 
Rope1_Seg05 0.000000 0.000000 0.000000 0.000000 0.000000 0.000000 10.000000 
Rope1_Seg06 0.000000 0.000000 0.000000 0.000000 0.000000 0.000000 10.000000 
Rope1_Seg07 0.000000 0.000000 0.000000 0.000000 0.000000 0.000000 10.000000 
Rope1_Seg09 0.000000 0.000000 0.000000 0.000000 0.000000 0.000000 10.000000 
L_mid_hand01 0.000000 0.000000 0.000000 0.000000 0.000000 0.000000 10.000000 
L_mid_hand02 0.000000 0.000000 0.000000 0.000000 0.000000 0.000000 10.000000 
L_mid_hand03 0.000000 0.000000 0.000000 0.000000 0.000000 0.000000 10.000000 
null_rope02_connect 0.000000 0.000000 0.000000 0.000000 0.000000 0.000000 10.000000 
Rope2_Seg01 0.000000 0.000000 0.000000 0.000000 0.000000 0.000000 10.000000 
Rope2_Seg02 0.000000 0.000000 0.000000 0.000000 0.000000 0.000000 10.000000 
Rope2_Seg03 0.000000 0.000000 0.000000 0.000000 0.000000 0.000000 10.000000 
Rope2_Seg04 0.000000 0.000000 0.000000 0.000000 0.000000 0.000000 10.000000 
Rope2_Seg05 0.000000 0.000000 0.000000 0.000000 0.000000 0.000000 10.000000 
Rope2_Seg06 0.000000 0.000000 0.000000 0.000000 0.000000 0.000000 10.000000 
Rope2_Seg07 0.000000 0.000000 0.000000 0.000000 0.000000 0.000000 10.000000 
Rope2_Seg09 0.000000 0.000000 0.000000 0.000000 0.000000 0.000000 10.000000 
R_mid_hand01 0.000000 0.000000 0.000000 0.000000 0.000000 0.000000 10.000000 
R_mid_hand02 0.000000 0.000000 0.000000 0.000000 0.000000 0.000000 10.000000 
R_mid_hand03 0.000000 0.000000 0.000000 0.000000 0.000000 0.000000 10.000000 
spine02 0.000000 0.000000 0.000000 0.000000 0.000000 0.000000 10.000000 
spine03 0.000000 0.000000 0.000000 0.000000 0.000000 0.000000 10.000000 
pelvis 0.000000 0.000000 0.000000 0.000000 0.000000 0.000000 10.000000 
null_rope03_connect 0.000000 0.000000 0.000000 0.000000 0.000000 0.000000 10.000000 
null_rope04_connect 0.000000 0.000000 0.000000 0.000000 0.000000 0.000000 10.000000 
Rope3_Seg01 0.000000 0.000000 0.000000 0.000000 0.000000 0.000000 10.000000 
Rope3_Seg02 0.000000 0.000000 0.000000 0.000000 0.000000 0.000000 10.000000 
Rope3_Seg03 0.000000 0.000000 0.000000 0.000000 0.000000 0.000000 10.000000 
Rope3_Seg04 0.000000 0.000000 0.000000 0.000000 0.000000 0.000000 10.000000 
Rope3_Seg05 0.000000 0.000000 0.000000 0.000000 0.000000 0.000000 10.000000 
Rope3_Seg06 0.000000 0.000000 0.000000 0.000000 0.000000 0.000000 10.000000 
Rope3_Seg07 0.000000 0.000000 0.000000 0.000000 0.000000 0.000000 10.000000 
Rope3_Seg08 0.000000 0.000000 0.000000 0.000000 0.000000 0.000000 10.000000 
Rope3_Seg09 0.000000 0.000000 0.000000 0.000000 0.000000 0.000000 10.000000 
R_rear_hand01 0.000000 0.000000 0.000000 0.000000 0.000000 0.000000 10.000000 
R_rear_hand02 0.000000 0.000000 0.000000 0.000000 0.000000 0.000000 10.000000 
R_rear_hand03 0.000000 0.000000 0.000000 0.000000 0.000000 0.000000 10.000000 
Rope4_Seg01 0.000000 0.000000 0.000000 0.000000 0.000000 0.000000 10.000000 
Rope4_Seg02 0.000000 0.000000 0.000000 0.000000 0.000000 0.000000 10.000000 
Rope4_Seg03 0.000000 0.000000 0.000000 0.000000 0.000000 0.000000 10.000000 
Rope4_Seg04 0.000000 0.000000 0.000000 0.000000 0.000000 0.000000 10.000000 
Rope4_Seg05 0.000000 0.000000 0.000000 0.000000 0.000000 0.000000 10.000000 
Rope4_Seg06 0.000000 0.000000 0.000000 0.000000 0.000000 0.000000 10.000000 
Rope4_Seg07 0.000000 0.000000 0.000000 0.000000 0.000000 0.000000 10.000000 
Rope4_Seg08 0.000000 0.000000 0.000000 0.000000 0.000000 0.000000 10.000000 
Rope4_Seg09 0.000000 0.000000 0.000000 0.000000 0.000000 0.000000 10.000000 
L_rear_hand01 0.000000 0.000000 0.000000 0.000000 0.000000 0.000000 10.000000 
L_rear_hand02 0.000000 0.000000 0.000000 0.000000 0.000000 0.000000 10.000000 
L_rear_hand03 0.000000 0.000000 0.000000 0.000000 0.000000 0.000000 10.000000 
#Beginning of Data. Separated by tabs
#Fr	Tx	Ty	Tz	Rx	Ry	Rz	SF
[MASTER]
19 2628.615967 -0.000397 0.000000 0.002347 0.000000 89.997704 2628.615723
20 2710.336426 -0.000409 0.000000 0.002347 0.000000 89.997704 2710.336426
[root]
19 -62.822105 16.502380 1184.794312 -78.977432 -28.251694 -160.486740 1186.573486
20 -62.822109 16.502380 1222.319458 -89.198761 -27.677048 -159.149429 1224.044067
[chest]
19 -84.512650 -34.090519 0.000000 4.567329 2.015262 -171.726379 91.129311
20 -84.512650 -34.090519 0.000000 -5.245216 2.381022 -173.461502 91.129311
[L_mid_tent01]
19 27.414179 22.111872 -250.654968 -28.566494 8.031593 23.673632 253.117325
20 27.391243 22.125013 -250.507660 -26.954041 12.083454 28.409489 252.970123
[R_mid_tent01]
19 23.228794 24.509907 226.238495 -136.143036 -0.521573 7.955852 228.744751
20 23.228794 24.509907 226.238495 -138.300888 -6.841341 12.826989 228.744751
[spine01]
19 -0.361383 -0.195265 0.000000 38.534473 1.357341 -0.655500 0.410763
20 -0.361383 -0.195265 0.000000 35.846001 0.851797 1.036170 0.410763
[Bip01_Neck]
19 165.484543 71.581718 0.000119 175.896118 1.177290 24.871183 180.302734
20 165.484543 71.581718 0.000119 175.896118 1.177290 24.871183 180.302734
[L_humerus]
19 -13.983130 -135.272980 -120.471481 170.940796 81.564224 -99.189163 181.680161
20 -13.983130 -135.272980 -120.471481 170.940796 81.564224 -99.189163 181.680161
[R_humerus]
19 -13.983309 -135.273102 125.287651 -159.666046 -68.957870 -101.166077 184.909012
20 -13.983309 -135.273102 125.287651 -159.666046 -68.957870 -101.166077 184.909012
[weapon_bone]
19 235.964890 -300.705902 0.000000 0.000000 -89.951546 -128.212341 382.234833
20 235.964890 -300.705902 0.000000 0.000000 -89.951546 -128.212341 382.234833
[Bip01_Head]
19 261.355743 108.959511 -2.864107 2.248029 5.843377 -62.458344 283.173462
20 261.355743 108.959526 -2.864102 2.248029 5.843375 -62.458332 283.173492
[eye_left_bone]
19 -24.626970 125.451866 -64.772606 0.000000 -90.000000 -99.840431 143.318359
20 -24.626970 125.451866 -64.772606 0.000000 -90.000000 -99.840431 143.318359
[eye_right_bone]
19 -24.626970 125.451866 64.327362 0.000000 -89.960434 80.159386 143.117676
20 -24.626970 125.451866 64.327362 0.000000 -89.960434 80.159386 143.117676
[L_forearm]
19 322.776093 0.000000 -0.000119 0.000471 0.002300 -66.859398 322.776093
20 322.776093 0.000000 -0.000119 0.000471 0.002300 -66.859398 322.776093
[L_front_hand]
19 241.149185 -0.042021 -3.300071 -178.667953 -1.835447 -27.422350 241.171753
20 241.149185 -0.042021 -3.300071 -178.667953 -1.835447 -27.422350 241.171753
[L_weapon_bone]
19 156.183838 0.000000 0.000000 0.001660 0.001660 0.001660 156.183838
20 156.183838 0.000000 0.000000 0.001660 0.001660 0.001660 156.183838
[L_front_hand01_01]
19 86.095154 20.947098 -0.655860 0.129779 -0.584621 25.138655 88.609184
20 86.095154 20.947098 -0.655860 0.087343 -0.593435 29.199377 88.609184
[L_front_hand02_01]
19 86.935165 -11.437475 24.513514 119.377884 -22.741905 -12.624727 91.046425
20 86.935165 -11.437475 24.513514 120.300995 -26.260725 -14.842677 91.046425
[L_front_hand03_01]
19 86.637497 -14.123976 -20.424902 -120.627998 21.380945 -14.848825 90.126129
20 86.637497 -14.123976 -20.424902 -121.523994 24.855082 -17.128637 90.126129
[L_front_hand01_02]
19 71.020905 -0.000179 0.000030 0.000749 0.002225 -52.791534 71.020905
20 71.020905 -0.000179 0.000030 0.000660 0.002255 -57.379116 71.020905
[L_front_hand02_02]
19 71.020927 -0.000119 0.000060 0.000749 0.002225 -52.791534 71.020927
20 71.020927 -0.000119 0.000060 0.000660 0.002255 -57.379116 71.020927
[L_front_hand03_02]
19 71.020905 -0.000060 0.000060 0.000749 0.002225 -52.791534 71.020905
20 71.020905 -0.000060 0.000060 0.000660 0.002255 -57.379116 71.020905
[R_forearm]
19 322.776428 -0.000060 0.000030 0.199694 -0.075621 -69.903069 322.776428
20 322.776428 -0.000060 0.000030 0.199694 -0.075621 -69.903069 322.776428
[R_front_hand]
19 238.847015 -0.006795 2.210259 -1.531694 0.790216 -51.443054 238.857239
20 238.847015 -0.006795 2.210259 -1.531694 0.790216 -51.443054 238.857239
[R_weapon_bone]
19 155.664093 0.002503 -0.000030 0.003487 0.001180 -90.988930 155.664078
20 155.664093 0.002503 -0.000030 0.003487 0.001180 -90.988930 155.664078
[R_front_hand01_01]
19 87.624611 14.231146 22.918642 -119.412842 -22.869034 12.811418 91.683487
20 87.624611 14.231146 22.918642 -120.341789 -26.387829 15.035521 91.683487
[R_front_hand02_01]
19 89.356956 14.367283 -19.491137 120.732735 21.772356 15.342690 92.579636
20 89.356956 14.367283 -19.491137 121.650002 25.243267 17.636728 92.579636
[R_front_hand03_01]
19 87.286232 -22.307278 -0.143439 -0.223514 -0.393752 -25.525316 90.091743
20 87.286232 -22.307278 -0.143439 -0.192555 -0.407193 -29.584127 90.091743
[R_front_hand01_02]
19 71.020905 0.000060 0.000119 0.002225 0.000749 52.789726 71.020905
20 71.020905 0.000060 0.000119 0.002255 0.000660 57.377277 71.020905
[R_front_hand02_02]
19 71.020844 -0.000030 -0.000119 0.002225 0.000749 52.789726 71.020836
20 71.020844 -0.000030 -0.000119 0.002255 0.000660 57.377277 71.020836
[R_front_hand03_02]
19 71.020905 0.000000 0.000030 0.002225 0.000749 52.789726 71.020905
20 71.020905 0.000000 0.000030 0.002255 0.000660 57.377277 71.020905
[null_rope01_connect]
19 328.732483 0.000000 -0.000238 142.122025 -66.676567 -45.987347 328.732483
20 328.732483 0.000000 -0.000238 161.482101 -62.021896 -70.195610 328.732483
[Rope1_Seg01]
19 0.000000 0.000000 0.000000 44.002174 62.092842 -124.739296 0.000000
20 0.000000 0.000000 0.000000 30.249262 59.676373 -139.867554 0.000000
[Rope1_Seg02]
19 139.999863 -0.000179 0.000000 3.408478 -6.817877 -27.002729 139.999863
20 139.999863 -0.000179 0.000000 4.856266 -8.771214 -32.323746 139.999863
[Rope1_Seg03]
19 139.999924 0.000060 -0.000060 10.365232 -8.039836 -26.952820 139.999924
20 139.999924 0.000060 -0.000060 8.950172 -8.152342 -22.614681 139.999924
[Rope1_Seg04]
19 139.999924 -0.000060 -0.000119 8.321820 -6.401420 -14.034776 139.999924
20 139.999924 -0.000060 -0.000119 6.398762 -5.039232 -12.116584 139.999924
[Rope1_Seg05]
19 139.999832 0.000119 -0.000060 8.079213 -5.765732 -11.254052 139.999832
20 139.999832 0.000119 -0.000060 8.461782 -5.222264 -13.104809 139.999832
[Rope1_Seg06]
19 139.999954 0.000119 -0.000060 9.051789 -6.872580 -10.231178 139.999954
20 139.999954 0.000119 -0.000060 8.345835 -5.817773 -9.902596 139.999954
[Rope1_Seg07]
19 139.999985 0.000060 0.000000 6.430602 -5.828542 -6.111715 139.999985
20 139.999985 0.000060 0.000000 5.852161 -4.769831 -5.820464 139.999985
[Rope1_Seg09]
19 121.602913 0.000119 -0.000089 -89.793175 -1.359789 0.847147 121.602913
20 121.602913 0.000119 -0.000089 -89.793175 -1.359789 0.847147 121.602913
[L_mid_hand01]
19 103.859421 1.038730 8.195221 104.962105 -16.202581 -4.793301 104.187431
20 103.859421 1.038730 8.195221 105.143661 -18.377056 -5.405620 104.187431
[L_mid_hand02]
19 105.572853 -4.139662 -10.864139 -137.773270 15.675935 -15.980887 106.211075
20 105.572853 -4.139662 -10.864139 -138.263901 17.178423 -17.722975 106.211075
[L_mid_hand03]
19 104.641464 17.579376 -3.913581 -18.078373 5.109438 19.164862 106.179977
20 104.641464 17.579376 -3.913581 -17.876320 5.806674 21.318083 106.179977
[null_rope02_connect]
19 328.732849 0.000179 -0.000119 -147.611496 26.176332 -67.328819 328.732849
20 328.732849 0.000179 -0.000119 -141.276382 36.231369 -55.621143 328.732849
[Rope2_Seg01]
19 -0.000049 0.000134 0.000153 1.416755 21.091629 -58.781067 0.000209
20 -0.000047 0.000134 0.000153 4.866209 36.114025 -59.716141 0.000208
[Rope2_Seg02]
19 139.999741 -0.000060 -0.000119 11.464690 17.797031 7.126735 139.999756
20 139.999741 -0.000060 -0.000119 2.913707 16.055470 -0.071938 139.999756
[Rope2_Seg03]
19 140.000107 0.000030 0.000000 6.960440 27.309477 5.539519 140.000107
20 140.000107 0.000030 0.000000 0.856771 23.059439 -1.004708 140.000107
[Rope2_Seg04]
19 139.999802 0.000000 -0.000060 0.181480 22.067245 2.007359 139.999802
20 139.999802 0.000000 -0.000060 -2.195989 21.345627 -1.111899 139.999802
[Rope2_Seg05]
19 139.999985 -0.000060 0.000119 -3.482305 20.040216 2.376159 139.999985
20 139.999985 -0.000060 0.000119 -5.104994 20.743711 -2.860859 139.999985
[Rope2_Seg06]
19 139.999893 -0.000030 -0.000119 -7.004585 16.817438 3.288415 139.999893
20 139.999893 -0.000030 -0.000119 -8.641631 16.728558 -1.441694 139.999893
[Rope2_Seg07]
19 139.999893 0.000060 -0.000060 -6.114243 8.540054 2.778327 139.999893
20 139.999893 0.000060 -0.000060 -9.515337 8.792914 0.816419 139.999893
[Rope2_Seg09]
19 121.338966 0.000089 -0.000060 33.793236 -1.359788 -0.847141 121.338966
20 121.338966 0.000089 -0.000060 33.793236 -1.359788 -0.847141 121.338966
[R_mid_hand01]
19 104.680779 11.144459 -10.335981 -45.435844 15.512771 17.484768 105.778534
20 104.680779 11.144459 -10.335981 -45.036015 16.896826 18.918304 105.778534
[R_mid_hand02]
19 104.070427 2.443552 8.231699 74.796021 -18.948435 5.579895 104.424065
20 104.070427 2.443552 8.231699 74.610535 -20.835535 6.127296 104.424065
[R_mid_hand03]
19 106.028137 -11.221827 -5.996406 -165.771210 6.973324 -22.869076 106.788818
20 106.028137 -11.221827 -5.996406 -166.009781 7.447360 -24.778097 106.788818
[spine02]
19 129.756927 0.001550 0.000119 -0.245322 -4.052060 -4.355547 129.756927
20 129.756927 0.001550 0.000119 -0.245322 -4.052060 -4.355547 129.756927
[spine03]
19 78.613739 0.087238 -4.899154 0.369659 4.260735 -4.885721 78.766289
20 78.613739 0.087244 -4.899174 0.369659 4.260734 -4.885720 78.766296
[pelvis]
19 169.435242 0.051022 0.000000 -0.010020 -0.192176 -1.882335 169.435257
20 169.435242 0.051022 0.000000 -0.010014 -0.191797 -1.889944 169.435257
[null_rope03_connect]
19 -1.257226 -2.466202 137.391083 38.878445 -29.165943 83.155983 137.418976
20 -1.257226 -2.466202 137.391083 44.133232 -40.724964 77.389854 137.418976
[null_rope04_connect]
19 -1.259640 -2.480268 -137.844437 38.878445 -29.165943 83.155983 137.872513
20 -1.259640 -2.480268 -137.844437 44.133232 -40.724964 77.389854 137.872513
[Rope3_Seg01]
19 0.000000 0.000000 0.000000 134.444855 -80.034386 -178.241272 0.000000
20 0.000000 0.000000 0.000000 -89.571648 -87.319710 45.436466 0.000000
[Rope3_Seg02]
19 139.999924 -0.000119 0.000060 4.164159 -6.352372 10.975286 139.999924
20 139.999924 -0.000119 0.000060 1.549596 -5.651785 11.348908 139.999924
[Rope3_Seg03]
19 139.999924 -0.000119 0.000119 2.504461 -11.250032 24.996508 139.999924
20 139.999924 -0.000119 0.000119 -2.395377 -10.804967 25.205130 139.999924
[Rope3_Seg04]
19 139.999924 0.000119 0.000000 -5.796373 -10.072605 32.260750 139.999924
20 139.999924 0.000119 0.000000 -12.086155 -11.792658 31.698242 139.999924
[Rope3_Seg05]
19 139.999924 -0.000238 0.000060 -12.684994 -11.878557 24.726387 139.999924
20 139.999924 -0.000238 0.000060 -17.511955 -16.252974 22.154438 139.999924
[Rope3_Seg06]
19 139.999893 -0.000119 -0.000060 -12.329700 -12.505409 15.126511 139.999893
20 139.999893 -0.000119 -0.000060 -12.884883 -16.822884 11.398212 139.999893
[Rope3_Seg07]
19 139.999771 0.000060 -0.000119 -5.234114 -6.602294 5.696267 139.999771
20 139.999771 0.000060 -0.000119 -4.410717 -8.255946 3.724724 139.999771
[Rope3_Seg08]
19 139.999985 -0.000060 0.000000 -2.248131 -3.471932 2.539502 139.999985
20 139.999985 -0.000060 0.000000 -1.629007 -4.161944 1.560583 139.999985
[Rope3_Seg09]
19 90.185997 -0.000179 -0.000060 89.793228 -1.359877 -0.847183 90.185997
20 90.185997 -0.000179 -0.000060 89.793228 -1.359877 -0.847183 90.185997
[R_rear_hand01]
19 103.366196 -6.073594 -10.757982 -157.907288 11.256098 -15.092482 104.101845
20 103.366196 -6.073594 -10.757982 -158.501556 12.396359 -17.993113 104.101845
[R_rear_hand02]
19 100.509819 12.039542 -7.992327 -37.601807 10.141744 15.899503 101.543350
20 100.509819 12.039542 -7.992327 -37.124035 11.994593 18.373814 101.543350
[R_rear_hand03]
19 101.539970 5.215704 5.435467 84.096489 -15.505945 5.448215 101.819031
20 101.539970 5.215704 5.435467 83.998283 -18.547699 5.781802 101.819031
[Rope4_Seg01]
19 0.000000 0.000000 0.000000 -97.992249 -19.955006 -113.805801 0.000000
20 0.000000 0.000000 0.000000 -97.756165 -25.860693 -113.477516 0.000000
[Rope4_Seg02]
19 139.999985 0.000060 0.000119 3.922761 26.513687 -0.700670 139.999985
20 139.999985 0.000060 0.000119 2.690799 25.911335 -6.002207 139.999985
[Rope4_Seg03]
19 139.999924 0.000000 -0.000238 53.512569 56.163738 -3.501772 139.999924
20 139.999924 0.000000 -0.000238 33.454609 54.153648 -19.113852 139.999924
[Rope4_Seg04]
19 139.999985 0.000000 0.000119 39.860542 11.926293 -22.241322 139.999985
20 139.999985 0.000000 0.000119 28.052011 12.401001 -21.995489 139.999985
[Rope4_Seg05]
19 139.999802 -0.000060 -0.000119 4.520181 -8.090322 -8.268505 139.999802
20 139.999802 -0.000060 -0.000119 6.234548 -5.575182 -10.307016 139.999802
[Rope4_Seg06]
19 139.999924 0.000000 0.000060 1.313048 -7.302839 -5.000060 139.999924
20 139.999924 0.000000 0.000060 2.609057 -5.743668 -6.775190 139.999924
[Rope4_Seg07]
19 139.999802 0.000000 0.000000 1.272552 -3.664692 -3.666926 139.999802
20 139.999802 0.000000 0.000000 1.600634 -2.802537 -4.441986 139.999802
[Rope4_Seg08]
19 139.999924 0.000000 0.000119 -0.905691 -2.256440 -2.162176 139.999924
20 139.999924 0.000000 0.000119 -0.739757 -1.756752 -2.628592 139.999924
[Rope4_Seg09]
19 90.185791 0.000060 0.000060 -135.617828 2.228885 0.850567 90.185791
20 90.185791 0.000060 0.000060 -135.617828 2.228885 0.850567 90.185791
[L_rear_hand01]
19 101.696655 -8.392275 -7.654577 -37.971752 -8.386451 166.395752 102.329041
20 101.696655 -8.392275 -7.654577 -37.550831 -10.352249 163.821823 102.329041
[L_rear_hand02]
19 102.726799 -1.568258 5.773216 84.171463 12.660944 174.857391 102.900848
20 102.726799 -1.568258 5.773216 84.085754 15.850829 174.516083 102.900848
[L_rear_hand03]
19 104.552910 9.721220 -10.420293 -157.407806 -10.168632 -167.602097 105.519653
20 104.552910 9.721220 -10.420293 -157.972427 -11.390801 -164.578979 105.519653
